HIERARCHY
ROOT Hips
{
  OFFSET 0 0 0
  CHANNELS 6 Xposition Yposition Zposition Zrotation Yrotation Xrotation
  JOINT LeftThigh
  {
    OFFSET 8.409438 0 -5.917753
    CHANNELS 3 Zrotation Yrotation Xrotation
    JOINT LeftLeg
    {
      OFFSET 0 0 -42.358652
      CHANNELS 3 Zrotation Yrotation Xrotation
      JOINT LeftFoot
      {
        OFFSET 0 0 -39.357303
        CHANNELS 3 Zrotation Yrotation Xrotation
      }
    }
  }
  JOINT RightThigh
  {
    OFFSET -8.409438 0 -5.917753
    CHANNELS 3 Zrotation Yrotation Xrotation
    JOINT RightLeg
    {
      OFFSET 0 0 -42.358652
      CHANNELS 3 Zrotation Yrotation Xrotation
      JOINT RightFoot
      {
        OFFSET 0 0 -39.357303
        CHANNELS 3 Zrotation Yrotation Xrotation
      }
    }
  }
  JOINT SpineLow
  {
    OFFSET 0 0 4.719101
    CHANNELS 3 Zrotation Yrotation Xrotation
    JOINT SpineMid
    {
      OFFSET 0 0 12.899191
      CHANNELS 3 Zrotation Yrotation Xrotation
      JOINT Chest
      {
        OFFSET 0 0 12.899191
        CHANNELS 3 Zrotation Yrotation Xrotation
        JOINT LeftShoulder
        {
          OFFSET 7.550562 1.41573 9.438202
          CHANNELS 3 Zrotation Yrotation Xrotation
          JOINT LeftArm
          {
            OFFSET 9.155056 0 4.247191
            CHANNELS 3 Zrotation Yrotation Xrotation
            JOINT LeftForearm
            {
              OFFSET 0 0 25.771955
              CHANNELS 3 Zrotation Yrotation Xrotation
              JOINT LeftHand
              {
                OFFSET 0 0 25.197169
                CHANNELS 3 Zrotation Yrotation Xrotation
              }
            }
          }
        }
        JOINT RightShoulder
        {
          OFFSET -7.550562 1.41573 9.438202
          CHANNELS 3 Zrotation Yrotation Xrotation
          JOINT RightArm
          {
            OFFSET -9.155056 0 4.247191
            CHANNELS 3 Zrotation Yrotation Xrotation
            JOINT RightForearm
            {
              OFFSET 0 0 -25.771955
              CHANNELS 3 Zrotation Yrotation Xrotation
              JOINT RightHand
              {
                OFFSET 0 0 -25.197169
                CHANNELS 3 Zrotation Yrotation Xrotation
              }
            }
          }
        }
        JOINT Neck
        {
          OFFSET 0 0 15.101124
          CHANNELS 3 Zrotation Yrotation Xrotation
          JOINT Head
          {
            OFFSET 0 0 11.325843
            CHANNELS 3 Zrotation Yrotation Xrotation
            End Site
            {
              OFFSET 0 0 14.157303
            }
          }
        }
      }
    }
  }
}
MOTION
Frames: 5
Frame Time: 0.0
0.0  93.25843  0.0  -2.460895  18.419768  -87.591399  -15.807483  -21.080159  -24.365945  3.454344  1.677911  29.771881  12.05187  1.234294  10.341516  -39.746188  -2.155149  -21.728763  -10.851597  21.774582  29.997362  14.473364  6.023982  -1.798924  3.984208  -0.678084  -0.173753  10.897788  -1.819106  -0.585108  10.897788  -1.819106  -0.585108  14.194459  23.557553  12.545626  177.892753  24.113022  174.555722  -5.937761  30.769427  103.854033  96.46687  -51.366388  -48.442892  9.117805  7.888682  15.909304  -175.080031  57.705521  163.257428  -41.91321  8.712806  -120.957193  89.639813  29.643233  20.755735  -26.637273  2.19359  4.501211  -19.992927  1.452179  3.479106  
0.0  93.25843  0.0  -2.456838  17.914916  -87.76707  -15.776798  -21.078018  -23.924347  3.736134  1.605979  29.546489  11.884525  1.229396  10.338088  -39.523433  -2.082359  -21.57815  -10.684317  21.606743  29.707611  14.431031  5.971745  -1.714442  3.937595  -0.713306  -0.136124  10.769806  -1.921677  -0.487021  10.769805  -1.921677  -0.487021  14.089731  23.702226  12.510928  178.033037  24.042462  174.530388  -5.851433  30.195171  103.971765  95.92606  -50.528673  -48.0661  9.037605  7.695852  15.971094  -174.360433  58.621047  163.748555  -42.379945  9.030359  -120.834938  88.741896  29.605011  20.41297  -26.543145  2.197042  4.507352  -19.922378  1.45518  3.483476  
0.0  93.25843  0.0  -2.481894  17.379395  -87.94943  -15.340001  -21.082722  -23.312455  3.84045  1.605903  29.156208  11.515664  1.24996  10.195737  -39.200434  -1.989049  -21.375243  -10.187914  21.330425  29.507933  14.153975  5.831441  -1.64202  3.895472  -0.748768  -0.095217  10.653894  -2.025265  -0.380016  10.653894  -2.025265  -0.380016  13.920493  23.834154  12.411149  178.107944  24.001752  174.534749  -5.793575  29.558739  104.087645  95.541575  -49.466002  -47.940007  8.990526  7.458721  16.003667  -172.654257  59.666848  164.195957  -42.317264  9.799705  -120.178681  87.752935  29.277261  19.666708  -26.39853  2.175007  4.515178  -19.813841  1.439314  3.487801  
0.0  93.25843  0.0  -2.54196  16.802024  -88.169593  -15.243239  -21.108519  -22.79096  4.110508  1.482444  28.869319  11.332959  1.270074  10.208347  -38.87607  -1.889789  -21.124376  -10.062273  21.054683  29.135003  14.102978  5.766305  -1.531499  3.840758  -0.785996  -0.045472  10.503178  -2.135002  -0.248649  10.503177  -2.135002  -0.248649  13.861624  23.981905  12.304595  178.244918  23.985387  174.540779  -5.659458  28.86572  104.273911  95.146494  -48.322513  -47.875355  8.920238  7.271898  16.005347  -171.731072  60.683069  164.79451  -42.752543  10.197749  -119.991419  86.82637  29.08858  19.120225  -26.217864  2.133343  4.491723  -19.678037  1.410301  3.46764  
0.0  93.25843  0.0  -2.634414  16.174795  -88.416794  -14.731435  -21.082596  -22.059629  4.14983  1.398123  28.398661  10.986284  1.284739  10.071995  -38.40104  -1.765529  -20.790633  -9.661583  20.690883  28.842683  13.945947  5.656386  -1.452301  3.779113  -0.831834  0.008804  10.333269  -2.268728  -0.105842  10.333269  -2.268728  -0.105843  13.695163  24.130247  12.110816  178.358905  24.099935  174.74408  -5.286322  28.401756  104.321997  95.545952  -47.188874  -48.558625  9.069765  7.054716  15.987446  -170.873846  61.700177  165.220263  -43.264189  10.727789  -119.764183  85.872391  28.693451  18.594477  -25.896892  2.097743  4.485165  -19.43711  1.386116  3.459898  
